<?xml version="1.0" encoding="UTF-8" standalone="no"?>
<!DOCTYPE svg PUBLIC "-//W3C//DTD SVG 1.1//EN" "http://www.w3.org/Graphics/SVG/1.1/DTD/svg11.dtd">
<!-- Created with Vectornator (http://vectornator.io/) -->
<svg height="100%" stroke-miterlimit="10" style="fill-rule:nonzero;clip-rule:evenodd;stroke-linecap:round;stroke-linejoin:round;" version="1.1" viewBox="0 0 250 45" width="100%" xml:space="preserve" xmlns="http://www.w3.org/2000/svg" xmlns:xlink="http://www.w3.org/1999/xlink">
<defs/>
<clipPath id="ArtboardFrame">
<rect height="45" width="250" x="0" y="0"/>
</clipPath>
<g clip-path="url(#ArtboardFrame)" id="Layer-1">
<g opacity="1">
<path d="M22.0607 18.1929L19.9086 23.3487L13.4714 23.3816L18.8515 25.8807L16.505 31.5012L15.8019 33.1866L12.139 33.1547L14.9164 35.3068L12.0842 42.0911C11.4848 43.5272 10.5225 43.5231 9.9341 42.0821L0.194913 18.2019C-0.392466 16.7609 0.392375 15.5921 1.94909 15.5921L20.3285 15.5921C21.8852 15.5921 22.661 16.7569 22.0607 18.1929Z" fill="#f5891d" fill-rule="nonzero" opacity="1" stroke="none"/>
<path d="M41.4483 19.4315L30.5972 19.4315L30.5972 25.9346L41.1322 25.9346L41.1322 29.774L30.5972 29.774L30.5972 38.8191L41.4483 38.8191L41.4483 42.6585L26.5124 42.6585L26.5124 15.5921L41.4483 15.5921L41.4483 19.4315Z" fill="#f5891d" fill-rule="nonzero" opacity="1" stroke="none"/>
<path d="M60.7302 28.5643L71.9144 28.5643L71.9144 29.4589C71.9144 31.4923 71.6751 33.2913 71.1964 34.858C70.7287 36.307 69.9398 37.6623 68.8299 38.9248C66.3168 41.753 63.1206 43.1671 59.2403 43.1671C55.4537 43.1671 52.2107 41.7999 49.5111 39.0644C46.8115 36.318 45.4623 33.0231 45.4623 29.1777C45.4623 25.2515 46.8355 21.9206 49.5819 19.1862C52.3284 16.4397 55.6702 15.0665 59.6083 15.0665C61.7245 15.0665 63.699 15.4993 65.534 16.3639C67.2872 17.2286 69.0104 18.6307 70.7047 20.5704L67.7948 23.3577C65.5749 20.4018 62.8693 18.9229 59.6791 18.9229C56.816 18.9229 54.4136 19.9102 52.474 21.8857C50.5343 23.8254 49.564 26.2567 49.564 29.1777C49.564 32.1933 50.645 34.6765 52.807 36.6282C54.8285 38.4391 57.0204 39.3456 59.3809 39.3456C61.3914 39.3456 63.1964 38.6675 64.798 37.3122C66.3986 35.944 67.2931 34.3085 67.4796 32.4038L60.7302 32.4038L60.7302 28.5643Z" fill="#f5891d" fill-rule="nonzero" opacity="1" stroke="none"/>
<path d="M92.2145 31.6668L92.2145 42.6585L88.1298 42.6585L88.1298 15.5921L92.758 15.5921C95.0248 15.5921 96.7371 15.7496 97.8939 16.0658C99.0627 16.3809 100.091 16.9773 100.979 17.8538C102.533 19.3727 103.311 21.2894 103.311 23.603C103.311 26.0812 102.481 28.0448 100.822 29.4938C99.1624 30.9428 96.9235 31.6668 94.1073 31.6668L92.2145 31.6668ZM92.2145 27.8812L93.7393 27.8812C97.491 27.8812 99.3668 26.4372 99.3668 23.5511C99.3668 20.7578 97.4321 19.3617 93.5638 19.3617L92.2145 19.3617L92.2145 27.8812Z" fill="#f5891d" fill-rule="nonzero" opacity="1" stroke="none"/>
<path d="M111.602 15.5921L111.602 38.8191L119.561 38.8191L119.561 42.6585L107.517 42.6585L107.517 15.5921L111.602 15.5921Z" fill="#f5891d" fill-rule="nonzero" opacity="1" stroke="none"/>
<path d="M140.842 36.0846L129.255 36.0846L126.24 42.6585L121.84 42.6585L135.232 13.8918L148.152 42.6585L143.682 42.6585L140.842 36.0846ZM139.177 32.2452L135.162 23.0425L130.955 32.2452L139.177 32.2452Z" fill="#f5891d" fill-rule="nonzero" opacity="1" stroke="none"/>
<path d="M151.535 42.6585L151.535 13.7521L171.274 34.4023L171.274 15.5921L175.359 15.5921L175.359 44.306L155.62 23.7087L155.62 42.6585L151.535 42.6585Z" fill="#f5891d" fill-rule="nonzero" opacity="1" stroke="none"/>
<path d="M181.845 42.6585L181.845 13.7521L201.583 34.4023L201.583 15.5921L205.667 15.5921L205.667 44.306L185.928 23.7087L185.928 42.6585L181.845 42.6585Z" fill="#f5891d" fill-rule="nonzero" opacity="1" stroke="none"/>
<path d="M227.089 19.4315L216.238 19.4315L216.238 25.9346L226.773 25.9346L226.773 29.774L216.238 29.774L216.238 38.8191L227.089 38.8191L227.089 42.6585L212.153 42.6585L212.153 15.5921L227.089 15.5921L227.089 19.4315Z" fill="#f5891d" fill-rule="nonzero" opacity="1" stroke="none"/>
<path d="M241.621 31.1233L250 42.6585L245.005 42.6585L237.274 31.58L236.537 31.58L236.537 42.6585L232.453 42.6585L232.453 15.5921L237.239 15.5921C240.815 15.5921 243.397 16.2642 244.987 17.6085C246.74 19.1044 247.617 21.079 247.617 23.5332C247.617 25.4499 247.067 27.0974 245.969 28.4766C244.87 29.8558 243.421 30.7384 241.621 31.1233ZM236.537 28.0208L237.834 28.0208C241.703 28.0208 243.638 26.5429 243.638 23.5861C243.638 20.8167 241.756 19.4315 237.992 19.4315L236.537 19.4315L236.537 28.0208Z" fill="#f5891d" fill-rule="nonzero" opacity="1" stroke="none"/>
<g opacity="1">
<path d="M11.1318 0L11.1318 0C12.2946 0 13.238 0.942412 13.238 2.10521L13.238 11.4924C13.238 12.6552 12.2946 13.5976 11.1318 13.5976L11.1318 13.5976C9.96899 13.5976 9.02559 12.6552 9.02559 11.4924L9.02559 2.10521C9.02559 0.942412 9.96899 0 11.1318 0Z" fill="#60cf4d" fill-rule="nonzero" opacity="1" stroke="none"/>
<path d="M3.00518 3.36573L3.00518 3.36573C3.82791 2.543 5.16123 2.543 5.98398 3.36573L12.6207 10.0025C13.4434 10.8252 13.4434 12.1585 12.6207 12.9813L12.6207 12.9813C11.799 13.803 10.4646 13.803 9.64289 12.9813L3.00518 6.34354C2.18344 5.5218 2.18344 4.18846 3.00518 3.36573Z" fill="#60cf4d" fill-rule="nonzero" opacity="1" stroke="none"/>
<path d="M19.2584 3.36573L19.2584 3.36573C20.0802 4.18846 20.0802 5.5218 19.2584 6.34354L12.6207 12.9813C11.799 13.803 10.4646 13.803 9.64289 12.9813L9.64289 12.9813C8.82016 12.1585 8.82016 10.8252 9.64289 10.0025L16.2796 3.36573C17.1023 2.543 18.4357 2.543 19.2584 3.36573Z" fill="#60cf4d" fill-rule="nonzero" opacity="1" stroke="none"/>
</g>
</g>
</g>
</svg>
